HIERARCHY
ROOT pelvis
{
  OFFSET 0 100 0
  CHANNELS 6 Xposition Yposition Zposition Zrotation Xrotation Yrotation
  JOINT pelvis_right_femur
  {
    OFFSET -10.78128 -3.44521 -0.5502486
    CHANNELS 3 Zrotation Xrotation Yrotation
    JOINT right_femur_tibia
    {
      OFFSET -0.8047443 -44.0398 -0.1307829
      CHANNELS 3 Zrotation Xrotation Yrotation
      JOINT right_tibia_foot
      {
        OFFSET 3.006224 -47.83518 -5
        CHANNELS 3 Zrotation Xrotation Yrotation
        End Site
        {
          OFFSET 0 -5 15
        }
      }
    }
  }
  JOINT pelvis_left_femur
  {
    OFFSET 10.78128 -3.44521 -0.5502486
    CHANNELS 3 Zrotation Xrotation Yrotation
    JOINT left_femur_tibia
    {
      OFFSET 0.8047443 -44.0398 -0.1307829
      CHANNELS 3 Zrotation Xrotation Yrotation
      JOINT left_tibia_foot
      {
        OFFSET -4.370144 -48.10324 -4.275266
        CHANNELS 3 Zrotation Xrotation Yrotation
        End Site
        {
          OFFSET 0 -5 15
        }
      }
    }
  }
  JOINT pelvis_spine1
  {
    OFFSET 0 6.468898 -3.129235
    CHANNELS 3 Zrotation Xrotation Yrotation
    JOINT spine1
    {
      OFFSET 0 23.15396 4.99043
      CHANNELS 3 Zrotation Xrotation Yrotation
      JOINT spine2
      {
        OFFSET 0 20.79997 -5.064912
        CHANNELS 3 Zrotation Xrotation Yrotation
        JOINT neck
        {
          OFFSET 0 14.38658 9.616178
          CHANNELS 3 Zrotation Xrotation Yrotation
          End Site
          {
            OFFSET 0 20 0
          }
        }
      }
      JOINT right_manubrium
      {
        OFFSET -5.722621 16.35077 3.967754
        CHANNELS 3 Zrotation Xrotation Yrotation
        JOINT right_clavicle
        {
          OFFSET -13.16364 1.694482 -4.693211
          CHANNELS 3 Zrotation Xrotation Yrotation
          JOINT right_humerus
          {
            OFFSET -28.5034 -0.3100689 -2.792744
            CHANNELS 3 Zrotation Xrotation Yrotation
            JOINT right_radius
            {
              OFFSET -25.15693 0.02248979 -1.271978
              CHANNELS 3 Zrotation Xrotation Yrotation
              End Site
              {
                OFFSET -15 0 0
              }
            }
          }
        }
      }
      JOINT left_manubrium
      {
        OFFSET 5.722621 16.35077 3.967754
        CHANNELS 3 Zrotation Xrotation Yrotation
        JOINT left_clavicle
        {
          OFFSET 13.16364 1.694482 -4.693211
          CHANNELS 3 Zrotation Xrotation Yrotation
          JOINT left_humerus
          {
            OFFSET 29.39168 -1.063119 -2.237045
            CHANNELS 3 Zrotation Xrotation Yrotation
            JOINT left_radius
            {
              OFFSET 24.59957 -0.9528479 0.9047498
              CHANNELS 3 Zrotation Xrotation Yrotation
              End Site
              {
                OFFSET 15 -0 -0
              }
            }
          }
        }
      }
    }
  }
}
MOTION
Frames: 11
Frame Time: 0.0416666666667
42.03629 100.3591 249.9923 2.816626 -8.090107 1.952984 -1.187673 24.67255 8.303777 -0 21.3483 -0 7.811889 -13.54015 0.4963128 -0.8099289 -25.77577 -5.920221 -0 25.32361 -0 -7.530382 -5.592291 19.21644 -1.209811 -0.9781617 10.14421 -2.260624 9.653538 -1.611107 2.669068 21.79022 4.865382 1.497827 -14.69938 7.448911 1.08068 -22.00123 11.0773 80.04421 21.13221 -4.200351 -0 0 28.34576 -26.52193 13.81134 13.9425 4.313384 -12.88524 -2.927599 -94.56476 22.44813 27.55218 0 0 -8.072974 -3.689562 5.803626 17.86919
43.71504 100.2333 257.103 3.133136 -8.078397 2.141792 -2.2048 24.16507 7.890374 -0 27.9973 -0 8.277331 -11.3297 -0.1648705 -2.363514 -22.96352 -7.073279 -0 25.49034 -0 -7.453889 -5.910132 18.67753 -1.678124 -1.581476 9.957539 -2.310767 9.373379 -1.642777 2.809495 21.94236 4.835242 1.374452 -14.61107 7.703696 1.242913 -21.24033 10.69106 80.68098 21.10459 -4.82426 -0 0 27.23336 -26.28216 13.73674 13.66026 4.118188 -12.39034 -2.93429 -94.16802 22.78565 27.1612 0 0 -7.53357 -3.74944 5.868983 18.09479
45.37994 100.6953 264.1261 3.517141 -8.322935 2.766974 -2.948389 22.16492 7.16677 -0 35.52617 -0 8.419892 -9.184688 -1.30398 -3.896122 -19.03118 -8.041672 -0 26.0719 -0 -7.276611 -6.641306 18.13269 -2.181909 -1.907062 9.51234 -2.282786 9.228796 -1.757423 2.874192 22.22702 4.846619 1.213761 -14.44923 7.957111 1.630168 -20.19928 10.41674 81.65071 21.3204 -6.041311 -0 0 25.24711 -25.81855 13.76044 13.13871 3.946954 -12.33953 -3.018331 -93.26309 23.21774 25.87888 0 0 -7.676658 -3.609549 6.044736 18.03378
46.96457 101.6813 270.8265 3.833374 -8.809719 3.775319 -3.158472 18.34468 6.188143 -0 42.91324 -0 8.211284 -7.731422 -2.739061 -5.133682 -14.14284 -8.749786 -0 26.23735 -0 -7.01549 -7.77536 17.56165 -2.560547 -1.800369 8.707891 -2.182789 9.181341 -2.014427 2.824384 22.62624 4.925507 0.9914579 -14.20905 8.211477 2.133608 -19.07144 10.26576 82.86616 21.73514 -7.619771 -0 0 22.76616 -25.15733 13.85622 12.47484 3.79697 -12.73453 -3.200276 -91.86203 23.70733 23.70857 0 0 -8.469884 -3.253531 6.329542 17.68003
48.43315 103.0133 277.0818 4.007184 -9.391486 5.004512 -2.857968 12.8557 5.117533 -0 48.81282 -0 7.671694 -7.130483 -4.216792 -5.947167 -8.61021 -9.230994 -0 25.56791 -0 -6.740649 -9.14215 16.94376 -2.743499 -1.331028 7.561862 -2.007575 9.161569 -2.460645 2.685851 23.09889 5.06621 0.7219207 -13.8963 8.477156 2.588921 -17.96072 10.17334 84.2644 22.26675 -9.397323 -0 0 20.17488 -24.35012 13.97831 11.76919 3.704583 -13.48584 -3.472237 -90.0707 24.18725 20.76699 0 0 -9.842063 -2.700402 6.711644 17.05787
49.78986 104.4346 282.8745 4.034271 -9.782687 6.349511 -2.299127 6.366873 4.145016 -0 51.55191 -0 6.88696 -7.071782 -5.43731 -6.324754 -2.956972 -9.579483 -0 23.98482 -0 -6.55776 -10.48105 16.25296 -2.772489 -0.7629873 6.205615 -1.747092 9.069693 -3.125609 2.555442 23.57863 5.219902 0.4601964 -13.53298 8.764731 2.783659 -16.87478 10.00712 85.79217 22.79773 -11.28391 -0 0 17.83229 -23.4715 14.06282 11.11332 3.758375 -14.43988 -3.792532 -88.06996 24.58641 17.26684 0 0 -11.72377 -1.997188 7.176811 16.20058
51.04857 105.6481 288.2985 3.978528 -9.827926 7.773035 -1.784299 -0.3889305 3.382283 -0 50.47831 -0 5.938802 -7.208188 -6.339757 -6.371101 2.425633 -9.875943 -0 21.75177 -0 -6.480678 -11.75345 15.4733 -2.757481 -0.2847184 4.80974 -1.412437 8.845437 -3.978933 2.51114 23.9964 5.323374 0.2536585 -13.16005 9.048849 2.631531 -15.79931 9.694402 87.33666 23.24319 -13.2244 -0 0 15.84996 -22.58503 14.06817 10.52724 4.012171 -15.49079 -4.107484 -86.00146 24.86684 13.42926 0 0 -14.03704 -1.188946 7.712241 15.13085
52.21729 106.3778 293.5383 3.935846 -9.486403 9.25277 -1.58332 -6.728515 2.836651 -0 45.73026 -0 4.889944 -7.289967 -7.013845 -6.247485 7.280577 -10.1497 -0 19.33466 -0 -6.466916 -13.06236 14.60963 -2.827941 0.006209774 3.554916 -1.032255 8.469411 -4.936526 2.600864 24.28957 5.315448 0.135626 -12.8315 9.281033 2.152379 -14.71464 9.227699 88.75413 23.55739 -15.17313 -0 0 14.16501 -21.73392 13.97348 9.977733 4.480868 -16.57362 -4.359656 -83.97218 25.02054 9.47357 0 0 -16.686 -0.3128805 8.306816 13.86859
53.30822 106.4739 298.7634 3.967738 -8.874094 10.68907 -1.734629 -12.2764 2.407293 -0 38.34567 -0 3.744197 -7.426641 -7.576672 -6.108446 11.56192 -10.35994 -0 17.27121 -0 -6.483155 -14.46202 13.72292 -3.027041 0.1377021 2.562006 -0.6486454 7.999386 -5.835512 2.80147 24.44298 5.183887 0.1015414 -12.60407 9.421298 1.505187 -13.60432 8.72112 89.97349 23.75802 -17.07985 -0 0 12.58412 -20.90204 13.7965 9.388329 5.098978 -17.65768 -4.506416 -82.07831 25.05391 5.612352 0 0 -19.50527 0.6119338 8.944521 12.46568
54.33325 105.946 304.0859 4.078701 -8.154707 11.91507 -2.110332 -16.83735 1.98636 -0 29.73889 -0 2.494601 -7.801803 -8.119873 -6.048075 15.29268 -10.45452 -0 16.02298 -0 -6.524205 -15.90923 12.89232 -3.319138 0.181822 1.886594 -0.2942925 7.513659 -6.522761 3.057857 24.47846 4.951922 0.1285723 -12.5132 9.451722 0.8767673 -12.48551 8.308394 90.97222 23.88927 -18.87572 -0 0 10.93122 -20.04917 13.56828 8.69093 5.763943 -18.71771 -4.526523 -80.40497 24.98844 2.048481 0 0 -22.28172 1.56634 9.603007 10.99595
55.28848 104.9585 309.5688 4.17604 -7.494968 12.81203 -2.349974 -20.30195 1.521038 -0 21.67623 -0 1.173675 -8.458204 -8.664832 -6.018056 18.46721 -10.43584 -0 15.91421 -0 -6.636741 -17.17862 12.20082 -3.566362 0.2137265 1.496095 0.01914264 7.077256 -6.91503 3.29981 24.46417 4.678832 0.1827452 -12.54818 9.390815 0.4302587 -11.44694 8.084497 91.75973 24.00561 -20.43596 -0 0 9.154305 -19.12714 13.32367 7.864416 6.341451 -19.70623 -4.429661 -79.04139 24.86044 -0.9941717 0 0 -24.71489 2.509609 10.24721 9.567266
